<svg width="80px" height="80px" viewBox="0 0 1270 459" fill="none" xmlns="http://www.w3.org/2000/svg">
<mask id="path-1-outside-1_1_115" maskUnits="userSpaceOnUse" x="-1" y="0" width="1272" height="459" fill="black">
<rect fill="white" x="-1" width="1272" height="459"/>
<path fill-rule="evenodd" clip-rule="evenodd" d="M260.172 31.0565C289.652 37.1139 306.558 66.6167 302.391 103.819C297.283 149.426 281.588 187.014 264.812 215.579C277.867 216.264 290.845 221.01 301.146 231.263C311.575 241.643 317.766 256.168 319.874 273.662C321.393 286.276 320.349 299.698 318.81 312.049C318.03 318.309 317.078 324.608 316.17 330.604L316.131 330.861C315.224 336.846 314.365 342.518 313.674 348.003C312.241 359.375 311.755 368.411 312.727 375.339C313.659 381.982 315.618 384.627 317.427 386.009C320.567 388.407 326.253 390.61 335.233 391.41C344 392.19 354.451 391.497 365.547 389.529C381.322 386.731 396.834 381.65 408.808 376.102C396.466 358.339 391.367 336.773 391.316 316.315C391.244 287.836 400.845 258.182 418.43 237.993C441.862 211.09 475.712 204.01 502.36 215.848C515.656 221.755 526.776 232.307 532.973 246.654C539.178 261.019 539.937 277.952 534.817 295.959C523.77 334.811 496.384 362.881 470.421 380.772C503.884 395.26 557.743 396.179 609.18 342.725C605.614 325.368 604.73 308.719 605.007 296.41C605.012 296.212 605.02 296.014 605.03 295.817C605.012 295.486 605.003 295.151 605.003 294.815C605.003 249.602 607.503 217.756 619.353 158.506C627.921 115.661 642.14 81.87 659.717 60.2246C677.026 38.911 702.214 25.0319 728.312 37.5974C751.885 48.9474 757.76 74.9183 757.628 99.475C757.489 125.149 750.942 157.541 740.838 193.664C723.745 254.771 673.328 322.475 651.107 350.499C650.493 351.274 649.828 351.984 649.12 352.63C650.035 355.24 651.042 357.804 652.146 360.297C660.951 380.162 674.613 393.25 697.453 393.821C728.706 394.602 756.252 380.506 779.62 360.716C785.418 355.805 790.871 350.616 795.966 345.333C795.186 342.661 794.478 339.941 793.837 337.18C792.593 332.129 791.651 327.078 791.036 322.09C787.781 299.33 788.254 274.535 790.526 250.245C793.869 214.501 801.33 177.835 808.46 146.787C816.57 111.468 829.308 82.087 845.061 62.3554C860.374 43.175 882.789 28.6924 907.845 37.2898C915.804 40.0208 923.506 44.4324 929.76 51.54C936.009 58.6426 939.881 67.3799 941.858 77.3028C945.651 96.3382 942.844 121.779 934.463 155.195C919.538 214.697 884.431 284.83 863.629 317.074C863.472 317.317 863.309 317.556 863.143 317.789C862.794 318.493 862.396 319.181 861.947 319.85C855.923 328.821 847.817 340.34 837.744 352.52C840.511 357.978 843.721 363.23 847.312 368.071C859.251 384.168 873.067 392.804 885.75 393.331C907.078 394.216 925.155 386.803 941.12 370.763C957.601 354.205 972.088 328.105 983.882 291.76C984.09 291.117 984.331 290.494 984.603 289.893C984.712 288.887 984.908 287.876 985.195 286.87C988.807 274.23 997.117 255.943 1010.92 240.463C1024.92 224.753 1045.71 210.815 1073.5 210.815C1074.4 210.815 1075.28 210.822 1076.15 210.835C1076.43 210.822 1076.72 210.815 1077 210.815C1082.38 210.815 1087.46 211.201 1092.27 211.933C1098.65 212.753 1104.3 213.999 1109.44 215.589C1119.16 218.6 1126.27 222.62 1131.92 226.022C1132.8 226.557 1133.63 227.057 1134.4 227.525L1134.42 227.537L1134.42 227.538C1138.79 230.189 1141.48 231.823 1144.84 233.129C1148.24 234.448 1152.72 235.514 1160.03 235.322C1183.05 234.716 1202.51 218.219 1208.88 210.154C1215.04 202.355 1226.36 201.029 1234.16 207.193C1241.96 213.357 1243.29 224.677 1237.12 232.476C1227.17 245.079 1198.75 270.315 1160.98 271.309C1159.82 271.34 1158.69 271.35 1157.58 271.341C1162.33 287.455 1163.07 303.659 1161.98 315.869C1161.49 333.658 1156.46 359.908 1142.38 382.767C1127.66 406.669 1102.72 427.085 1064.3 428.798C1045.49 429.636 1029.13 425.577 1015.75 416.875C1002.43 408.211 993.377 395.803 987.657 382.12C986.57 379.52 985.596 376.858 984.729 374.145C979.132 382.292 973.111 389.653 966.636 396.159C944.101 418.799 916.428 430.635 884.256 429.3C856.377 428.143 833.692 410.139 818.397 389.518C816.147 386.483 814.006 383.329 811.984 380.079C809.048 382.827 806.015 385.537 802.886 388.187C775.67 411.237 739.8 430.891 696.553 429.81C658.129 428.849 634.873 406.204 621.86 380.431C553.438 441.049 478.02 431.435 435.705 402.695C418.697 412.513 394.91 420.883 371.834 424.976C358.617 427.32 344.849 428.409 332.039 427.268C319.44 426.146 306.189 422.724 295.578 414.621C283.638 405.503 278.785 392.524 277.076 380.339C275.407 368.438 276.452 355.443 277.957 343.502C278.705 337.567 279.622 331.51 280.506 325.676L280.506 325.674L280.506 325.672L280.576 325.212C281.494 319.151 282.374 313.313 283.086 307.598C284.532 295.995 285.112 286.104 284.132 277.968C282.729 266.326 279.062 260.075 275.75 256.778C272.538 253.582 268.242 251.733 262.551 251.512C250.255 251.037 233.371 258.569 221.26 272.923C210.427 285.763 200.457 310.017 192.368 338.216C184.496 365.655 179.141 394.1 176.303 412.989C174.826 422.82 165.66 429.592 155.829 428.116C145.998 426.639 139.226 417.472 140.703 407.642C143.179 391.157 147.464 367.765 153.631 343.572C143.444 351.212 132.27 359.006 121.261 366.397C96.9573 382.714 71.8649 398.109 56.1037 407.345C47.5268 412.371 36.4993 409.493 31.4731 400.916C26.4468 392.339 29.3252 381.312 37.9021 376.286C53.1409 367.355 77.5985 352.35 101.195 336.508C125.24 320.366 146.86 304.357 157.571 293.294C158.687 292.142 159.92 291.171 161.232 290.381C162.547 277.909 163.872 264.543 165.241 250.728L165.241 250.727C166.901 233.972 168.627 216.556 170.481 199.271C173.115 174.702 175.996 150.573 179.284 129.688C182.518 109.149 186.327 90.5006 191.126 77.5575C203.51 44.158 231.632 25.1923 260.172 31.0565ZM1087.26 247.585C1083.37 247.105 1078.84 246.815 1073.5 246.815C1058.9 246.815 1047.18 253.878 1037.79 264.418C1028.19 275.187 1022.2 288.401 1019.81 296.76C1019.72 297.091 1019.61 297.416 1019.5 297.737C1019.47 298.951 1019.32 300.181 1019.03 301.411C1013.27 326.064 1013.64 350.941 1020.87 368.236C1024.36 376.591 1029.23 382.701 1035.38 386.696C1041.46 390.654 1050.11 393.394 1062.7 392.833C1087.09 391.746 1102.06 379.578 1111.72 363.889C1121.85 347.442 1125.72 327.464 1126.01 314.426L1126.02 313.759L1126.08 313.094C1127.27 300.737 1125.55 283.098 1118.09 269.33C1112.44 258.917 1103.38 250.163 1087.26 247.585ZM832.06 299.781C830.133 302.65 828.017 305.738 825.717 308.986C824.113 292.36 824.499 273.588 826.369 253.597C829.489 220.244 836.528 185.41 843.546 154.844C850.936 122.663 861.948 98.9044 873.195 84.8161C884.882 70.1768 892.717 70.1594 896.161 71.341C899.555 72.5054 901.466 73.8817 902.732 75.3202C904.002 76.7638 905.555 79.3311 906.552 84.3369C908.708 95.1591 907.662 114.072 899.544 146.436C885.788 201.277 852.576 267.8 833.378 297.557C833.003 298.139 832.665 298.734 832.365 299.34C832.261 299.485 832.159 299.632 832.06 299.781ZM640.999 304.31C664.442 272.132 694.616 225.265 706.168 183.967C716.064 148.59 721.517 119.982 721.628 99.2809C721.746 77.4626 716.121 71.6835 712.694 70.0334C708.792 68.1543 700.48 67.1357 687.663 82.9187C675.116 98.37 662.584 125.911 654.653 165.566C643.257 222.547 641.003 252.029 641.003 294.815C641.003 295.15 640.994 295.483 640.976 295.813C641.001 296.278 641.009 296.747 640.998 297.221C640.948 299.451 640.945 301.824 640.999 304.31ZM202.473 240.135C222.582 217.868 258.826 169.356 266.615 99.8119C269.448 74.5141 258.332 67.4306 252.926 66.3198C246.581 65.0159 232.953 68.3002 224.88 90.0732C221.429 99.3801 218.05 114.94 214.846 135.287C211.697 155.287 208.891 178.72 206.275 203.11C204.969 215.29 203.707 227.758 202.473 240.135ZM439.876 357.57C431.598 346.838 427.356 332.34 427.316 316.224C427.262 294.921 434.661 274.169 445.577 261.638C459.587 245.552 476.831 243.9 487.744 248.748C493.228 251.184 497.506 255.33 499.925 260.93C502.336 266.513 503.413 274.777 500.189 286.113C490.754 319.299 463.916 343.568 439.876 357.57Z"/>
</mask>
<path fill-rule="evenodd" clip-rule="evenodd" d="M260.172 31.0565C289.652 37.1139 306.558 66.6167 302.391 103.819C297.283 149.426 281.588 187.014 264.812 215.579C277.867 216.264 290.845 221.01 301.146 231.263C311.575 241.643 317.766 256.168 319.874 273.662C321.393 286.276 320.349 299.698 318.81 312.049C318.03 318.309 317.078 324.608 316.17 330.604L316.131 330.861C315.224 336.846 314.365 342.518 313.674 348.003C312.241 359.375 311.755 368.411 312.727 375.339C313.659 381.982 315.618 384.627 317.427 386.009C320.567 388.407 326.253 390.61 335.233 391.41C344 392.19 354.451 391.497 365.547 389.529C381.322 386.731 396.834 381.65 408.808 376.102C396.466 358.339 391.367 336.773 391.316 316.315C391.244 287.836 400.845 258.182 418.43 237.993C441.862 211.09 475.712 204.01 502.36 215.848C515.656 221.755 526.776 232.307 532.973 246.654C539.178 261.019 539.937 277.952 534.817 295.959C523.77 334.811 496.384 362.881 470.421 380.772C503.884 395.26 557.743 396.179 609.18 342.725C605.614 325.368 604.73 308.719 605.007 296.41C605.012 296.212 605.02 296.014 605.03 295.817C605.012 295.486 605.003 295.151 605.003 294.815C605.003 249.602 607.503 217.756 619.353 158.506C627.921 115.661 642.14 81.87 659.717 60.2246C677.026 38.911 702.214 25.0319 728.312 37.5974C751.885 48.9474 757.76 74.9183 757.628 99.475C757.489 125.149 750.942 157.541 740.838 193.664C723.745 254.771 673.328 322.475 651.107 350.499C650.493 351.274 649.828 351.984 649.12 352.63C650.035 355.24 651.042 357.804 652.146 360.297C660.951 380.162 674.613 393.25 697.453 393.821C728.706 394.602 756.252 380.506 779.62 360.716C785.418 355.805 790.871 350.616 795.966 345.333C795.186 342.661 794.478 339.941 793.837 337.18C792.593 332.129 791.651 327.078 791.036 322.09C787.781 299.33 788.254 274.535 790.526 250.245C793.869 214.501 801.33 177.835 808.46 146.787C816.57 111.468 829.308 82.087 845.061 62.3554C860.374 43.175 882.789 28.6924 907.845 37.2898C915.804 40.0208 923.506 44.4324 929.76 51.54C936.009 58.6426 939.881 67.3799 941.858 77.3028C945.651 96.3382 942.844 121.779 934.463 155.195C919.538 214.697 884.431 284.83 863.629 317.074C863.472 317.317 863.309 317.556 863.143 317.789C862.794 318.493 862.396 319.181 861.947 319.85C855.923 328.821 847.817 340.34 837.744 352.52C840.511 357.978 843.721 363.23 847.312 368.071C859.251 384.168 873.067 392.804 885.75 393.331C907.078 394.216 925.155 386.803 941.12 370.763C957.601 354.205 972.088 328.105 983.882 291.76C984.09 291.117 984.331 290.494 984.603 289.893C984.712 288.887 984.908 287.876 985.195 286.87C988.807 274.23 997.117 255.943 1010.92 240.463C1024.92 224.753 1045.71 210.815 1073.5 210.815C1074.4 210.815 1075.28 210.822 1076.15 210.835C1076.43 210.822 1076.72 210.815 1077 210.815C1082.38 210.815 1087.46 211.201 1092.27 211.933C1098.65 212.753 1104.3 213.999 1109.44 215.589C1119.16 218.6 1126.27 222.62 1131.92 226.022C1132.8 226.557 1133.63 227.057 1134.4 227.525L1134.42 227.537L1134.42 227.538C1138.79 230.189 1141.48 231.823 1144.84 233.129C1148.24 234.448 1152.72 235.514 1160.03 235.322C1183.05 234.716 1202.51 218.219 1208.88 210.154C1215.04 202.355 1226.36 201.029 1234.16 207.193C1241.96 213.357 1243.29 224.677 1237.12 232.476C1227.17 245.079 1198.75 270.315 1160.98 271.309C1159.82 271.34 1158.69 271.35 1157.58 271.341C1162.33 287.455 1163.07 303.659 1161.98 315.869C1161.49 333.658 1156.46 359.908 1142.38 382.767C1127.66 406.669 1102.72 427.085 1064.3 428.798C1045.49 429.636 1029.13 425.577 1015.75 416.875C1002.43 408.211 993.377 395.803 987.657 382.12C986.57 379.52 985.596 376.858 984.729 374.145C979.132 382.292 973.111 389.653 966.636 396.159C944.101 418.799 916.428 430.635 884.256 429.3C856.377 428.143 833.692 410.139 818.397 389.518C816.147 386.483 814.006 383.329 811.984 380.079C809.048 382.827 806.015 385.537 802.886 388.187C775.67 411.237 739.8 430.891 696.553 429.81C658.129 428.849 634.873 406.204 621.86 380.431C553.438 441.049 478.02 431.435 435.705 402.695C418.697 412.513 394.91 420.883 371.834 424.976C358.617 427.32 344.849 428.409 332.039 427.268C319.44 426.146 306.189 422.724 295.578 414.621C283.638 405.503 278.785 392.524 277.076 380.339C275.407 368.438 276.452 355.443 277.957 343.502C278.705 337.567 279.622 331.51 280.506 325.676L280.506 325.674L280.506 325.672L280.576 325.212C281.494 319.151 282.374 313.313 283.086 307.598C284.532 295.995 285.112 286.104 284.132 277.968C282.729 266.326 279.062 260.075 275.75 256.778C272.538 253.582 268.242 251.733 262.551 251.512C250.255 251.037 233.371 258.569 221.26 272.923C210.427 285.763 200.457 310.017 192.368 338.216C184.496 365.655 179.141 394.1 176.303 412.989C174.826 422.82 165.66 429.592 155.829 428.116C145.998 426.639 139.226 417.472 140.703 407.642C143.179 391.157 147.464 367.765 153.631 343.572C143.444 351.212 132.27 359.006 121.261 366.397C96.9573 382.714 71.8649 398.109 56.1037 407.345C47.5268 412.371 36.4993 409.493 31.4731 400.916C26.4468 392.339 29.3252 381.312 37.9021 376.286C53.1409 367.355 77.5985 352.35 101.195 336.508C125.24 320.366 146.86 304.357 157.571 293.294C158.687 292.142 159.92 291.171 161.232 290.381C162.547 277.909 163.872 264.543 165.241 250.728L165.241 250.727C166.901 233.972 168.627 216.556 170.481 199.271C173.115 174.702 175.996 150.573 179.284 129.688C182.518 109.149 186.327 90.5006 191.126 77.5575C203.51 44.158 231.632 25.1923 260.172 31.0565ZM1087.26 247.585C1083.37 247.105 1078.84 246.815 1073.5 246.815C1058.9 246.815 1047.18 253.878 1037.79 264.418C1028.19 275.187 1022.2 288.401 1019.81 296.76C1019.72 297.091 1019.61 297.416 1019.5 297.737C1019.47 298.951 1019.32 300.181 1019.03 301.411C1013.27 326.064 1013.64 350.941 1020.87 368.236C1024.36 376.591 1029.23 382.701 1035.38 386.696C1041.46 390.654 1050.11 393.394 1062.7 392.833C1087.09 391.746 1102.06 379.578 1111.72 363.889C1121.85 347.442 1125.72 327.464 1126.01 314.426L1126.02 313.759L1126.08 313.094C1127.27 300.737 1125.55 283.098 1118.09 269.33C1112.44 258.917 1103.38 250.163 1087.26 247.585ZM832.06 299.781C830.133 302.65 828.017 305.738 825.717 308.986C824.113 292.36 824.499 273.588 826.369 253.597C829.489 220.244 836.528 185.41 843.546 154.844C850.936 122.663 861.948 98.9044 873.195 84.8161C884.882 70.1768 892.717 70.1594 896.161 71.341C899.555 72.5054 901.466 73.8817 902.732 75.3202C904.002 76.7638 905.555 79.3311 906.552 84.3369C908.708 95.1591 907.662 114.072 899.544 146.436C885.788 201.277 852.576 267.8 833.378 297.557C833.003 298.139 832.665 298.734 832.365 299.34C832.261 299.485 832.159 299.632 832.06 299.781ZM640.999 304.31C664.442 272.132 694.616 225.265 706.168 183.967C716.064 148.59 721.517 119.982 721.628 99.2809C721.746 77.4626 716.121 71.6835 712.694 70.0334C708.792 68.1543 700.48 67.1357 687.663 82.9187C675.116 98.37 662.584 125.911 654.653 165.566C643.257 222.547 641.003 252.029 641.003 294.815C641.003 295.15 640.994 295.483 640.976 295.813C641.001 296.278 641.009 296.747 640.998 297.221C640.948 299.451 640.945 301.824 640.999 304.31ZM202.473 240.135C222.582 217.868 258.826 169.356 266.615 99.8119C269.448 74.5141 258.332 67.4306 252.926 66.3198C246.581 65.0159 232.953 68.3002 224.88 90.0732C221.429 99.3801 218.05 114.94 214.846 135.287C211.697 155.287 208.891 178.72 206.275 203.11C204.969 215.29 203.707 227.758 202.473 240.135ZM439.876 357.57C431.598 346.838 427.356 332.34 427.316 316.224C427.262 294.921 434.661 274.169 445.577 261.638C459.587 245.552 476.831 243.9 487.744 248.748C493.228 251.184 497.506 255.33 499.925 260.93C502.336 266.513 503.413 274.777 500.189 286.113C490.754 319.299 463.916 343.568 439.876 357.57Z" fill="white"/>
<path d="M302.391 103.819L331.211 107.047V107.047L302.391 103.819ZM260.172 31.0565L254.335 59.4631L260.172 31.0565ZM264.812 215.579L239.806 200.893L215.64 242.039L263.293 244.539L264.812 215.579ZM301.146 231.263L280.688 251.817L280.688 251.817L301.146 231.263ZM319.874 273.662L291.082 277.131V277.131L319.874 273.662ZM318.81 312.049L347.588 315.634V315.634L318.81 312.049ZM316.17 330.604L287.497 326.261L287.497 326.261L316.17 330.604ZM316.131 330.861L344.804 335.204L344.804 335.204L316.131 330.861ZM313.674 348.003L342.447 351.629L342.447 351.628L313.674 348.003ZM312.727 375.339L284.008 379.366L284.008 379.366L312.727 375.339ZM317.427 386.009L299.826 409.057L299.827 409.058L317.427 386.009ZM335.233 391.41L337.805 362.524H337.805L335.233 391.41ZM365.547 389.529L370.612 418.084H370.612L365.547 389.529ZM408.808 376.102L421 402.415L452.319 387.903L432.624 359.556L408.808 376.102ZM391.316 316.315L420.316 316.242L391.316 316.315ZM418.43 237.993L396.562 218.946V218.946L418.43 237.993ZM502.36 215.848L514.133 189.346L502.36 215.848ZM532.973 246.654L506.351 258.154V258.154L532.973 246.654ZM534.817 295.959L506.923 288.028L534.817 295.959ZM470.421 380.772L453.966 356.893L410.87 386.59L458.899 407.385L470.421 380.772ZM609.18 342.725L630.076 362.834L640.658 351.837L637.587 336.889L609.18 342.725ZM605.007 296.41L634 297.063L634 297.061L605.007 296.41ZM605.03 295.817L633.987 297.407L634.074 295.818L633.987 294.229L605.03 295.817ZM605.003 294.815H634.003V294.815L605.003 294.815ZM619.353 158.506L590.916 152.819L619.353 158.506ZM659.717 60.2246L637.205 41.9433V41.9433L659.717 60.2246ZM728.312 37.5974L715.731 63.7264L715.731 63.7264L728.312 37.5974ZM757.628 99.475L728.628 99.3186V99.3187L757.628 99.475ZM740.838 193.664L768.766 201.476V201.476L740.838 193.664ZM651.107 350.499L673.831 368.517L673.831 368.516L651.107 350.499ZM649.12 352.63L629.575 331.206L615.412 344.127L621.752 362.22L649.12 352.63ZM652.146 360.297L678.659 348.546L678.659 348.546L652.146 360.297ZM697.453 393.821L698.178 364.83H698.177L697.453 393.821ZM779.62 360.716L798.362 382.845L798.362 382.845L779.62 360.716ZM795.966 345.333L816.841 365.464L828.516 353.357L823.805 337.21L795.966 345.333ZM793.837 337.18L822.086 330.624L822.042 330.434L821.995 330.244L793.837 337.18ZM791.036 322.09L819.819 318.544L819.784 318.263L819.744 317.984L791.036 322.09ZM790.526 250.245L819.4 252.945V252.945L790.526 250.245ZM808.46 146.787L780.195 140.297V140.297L808.46 146.787ZM845.061 62.3554L867.724 80.4488L867.724 80.4488L845.061 62.3554ZM907.845 37.2898L917.257 9.85959L917.257 9.85958L907.845 37.2898ZM929.76 51.54L951.532 32.3838V32.3837L929.76 51.54ZM941.858 77.3028L970.299 71.6364V71.6363L941.858 77.3028ZM934.463 155.195L906.334 148.139V148.139L934.463 155.195ZM863.629 317.074L887.997 332.796L887.997 332.795L863.629 317.074ZM863.143 317.789L839.545 300.933L838.192 302.826L837.159 304.911L863.143 317.789ZM861.947 319.85L837.871 303.683L837.871 303.683L861.947 319.85ZM837.744 352.52L815.396 334.038L803.284 348.685L811.879 365.636L837.744 352.52ZM847.312 368.071L870.604 350.795L870.604 350.795L847.312 368.071ZM885.75 393.331L886.952 364.356H886.952L885.75 393.331ZM941.12 370.763L920.566 350.304L920.566 350.304L941.12 370.763ZM983.882 291.76L956.298 282.808L956.298 282.808L983.882 291.76ZM984.603 289.893L1011.04 301.819L1012.94 297.612L1013.43 293.024L984.603 289.893ZM985.195 286.87L1013.08 294.838L1013.08 294.837L985.195 286.87ZM1010.92 240.463L989.269 221.166L1010.92 240.463ZM1076.15 210.835L1075.72 239.832L1076.61 239.845L1077.5 239.804L1076.15 210.835ZM1092.27 211.933L1087.91 240.603L1088.24 240.653L1088.57 240.696L1092.27 211.933ZM1109.44 215.589L1100.86 243.292V243.292L1109.44 215.589ZM1131.92 226.022L1116.95 250.863L1116.95 250.864L1131.92 226.022ZM1134.4 227.525L1149.47 202.751L1149.46 202.743L1149.45 202.734L1134.4 227.525ZM1134.42 227.537L1119.34 252.311L1119.48 252.393L1119.61 252.473L1134.42 227.537ZM1134.42 227.538L1149.47 202.748L1149.35 202.674L1149.23 202.602L1134.42 227.538ZM1144.84 233.129L1155.34 206.094L1155.34 206.094L1144.84 233.129ZM1160.03 235.322L1160.79 264.312L1160.03 235.322ZM1208.88 210.154L1231.63 228.136L1231.63 228.136L1208.88 210.154ZM1234.16 207.193L1252.15 184.441L1252.15 184.441L1234.16 207.193ZM1237.12 232.476L1214.37 214.495V214.495L1237.12 232.476ZM1160.98 271.309L1160.21 242.319L1160.98 271.309ZM1157.58 271.341L1157.82 242.342L1118.69 242.019L1129.76 279.544L1157.58 271.341ZM1161.98 315.869L1133.1 313.286L1133.02 314.174L1132.99 315.066L1161.98 315.869ZM1142.38 382.767L1167.07 397.975V397.974L1142.38 382.767ZM1064.3 428.798L1065.59 457.769L1064.3 428.798ZM1015.75 416.875L1031.56 392.564L1031.56 392.564L1015.75 416.875ZM987.657 382.12L960.901 393.305V393.305L987.657 382.12ZM984.729 374.145L1012.35 365.319L994.34 308.945L960.827 357.724L984.729 374.145ZM966.636 396.159L987.189 416.617L987.19 416.617L966.636 396.159ZM884.256 429.3L883.053 458.275H883.054L884.256 429.3ZM818.397 389.518L841.689 372.241L818.397 389.518ZM811.984 380.079L836.608 364.761L817.951 334.769L792.165 358.907L811.984 380.079ZM802.886 388.187L821.628 410.317L821.629 410.317L802.886 388.187ZM696.553 429.81L695.828 458.801L696.553 429.81ZM621.86 380.431L647.748 367.36L630.79 333.775L602.629 358.724L621.86 380.431ZM435.705 402.695L451.999 378.705L436.956 368.488L421.207 377.579L435.705 402.695ZM371.834 424.976L366.769 396.422L371.834 424.976ZM332.039 427.268L329.466 456.153H329.466L332.039 427.268ZM295.578 414.621L277.978 437.669L277.978 437.669L295.578 414.621ZM277.076 380.339L305.795 376.311V376.311L277.076 380.339ZM277.957 343.502L249.184 339.877V339.877L277.957 343.502ZM280.506 325.676L309.179 330.019L309.197 329.898L309.214 329.777L280.506 325.676ZM280.506 325.674L251.866 321.118L251.83 321.345L251.798 321.573L280.506 325.674ZM280.506 325.672L309.146 330.228L309.163 330.122L309.179 330.016L280.506 325.672ZM280.576 325.212L309.249 329.556L309.249 329.555L280.576 325.212ZM283.086 307.598L254.309 304.012L254.309 304.012L283.086 307.598ZM284.132 277.968L312.924 274.499V274.499L284.132 277.968ZM275.75 256.778L255.292 277.333L255.292 277.333L275.75 256.778ZM262.551 251.512L261.43 280.491L262.551 251.512ZM221.26 272.923L243.425 291.624V291.624L221.26 272.923ZM192.368 338.216L164.492 330.22L192.368 338.216ZM176.303 412.989L204.981 417.297L176.303 412.989ZM155.829 428.116L160.137 399.437H160.137L155.829 428.116ZM140.703 407.642L112.024 403.334L140.703 407.642ZM153.631 343.572L181.733 350.735L202.056 271.003L136.231 320.372L153.631 343.572ZM121.261 366.397L137.426 390.474L137.426 390.474L121.261 366.397ZM56.1037 407.345L41.4413 382.325H41.4413L56.1037 407.345ZM31.4731 400.916L56.4934 386.254L56.4933 386.254L31.4731 400.916ZM37.9021 376.286L23.2397 351.265H23.2397L37.9021 376.286ZM101.195 336.508L85.0302 312.431H85.0302L101.195 336.508ZM157.571 293.294L178.405 313.467L178.406 313.467L157.571 293.294ZM161.232 290.381L176.181 315.232L188.558 307.786L190.073 293.421L161.232 290.381ZM165.241 250.728L136.439 247.339L136.408 247.604L136.382 247.868L165.241 250.728ZM165.241 250.727L194.042 254.116L194.073 253.851L194.099 253.587L165.241 250.727ZM170.481 199.271L199.315 202.363L170.481 199.271ZM179.284 129.688L207.932 134.198V134.198L179.284 129.688ZM191.126 77.5575L163.935 67.4754V67.4754L191.126 77.5575ZM1087.26 247.585L1091.83 218.949L1091.32 218.868L1090.81 218.804L1087.26 247.585ZM1037.79 264.418L1016.14 245.121L1016.14 245.121L1037.79 264.418ZM1019.81 296.76L991.926 288.793L991.926 288.795L1019.81 296.76ZM1019.5 297.737L992.107 288.222L990.621 292.501L990.51 297.029L1019.5 297.737ZM1019.03 301.411L1047.27 308.009L1047.27 308.008L1019.03 301.411ZM1020.87 368.236L1047.63 357.051L1047.63 357.051L1020.87 368.236ZM1035.38 386.696L1051.19 362.385L1035.38 386.696ZM1062.7 392.833L1061.41 363.862L1062.7 392.833ZM1111.72 363.889L1136.42 379.096V379.096L1111.72 363.889ZM1126.01 314.426L1155 315.053L1155 315.052L1126.01 314.426ZM1126.02 313.759L1097.15 310.985L1097.05 312.057L1097.03 313.133L1126.02 313.759ZM1126.08 313.094L1154.95 315.868L1154.95 315.867L1126.08 313.094ZM1118.09 269.33L1143.58 255.511L1143.58 255.511L1118.09 269.33ZM825.717 308.986L796.851 311.771L804.336 389.34L849.381 325.748L825.717 308.986ZM832.06 299.781L856.135 315.948L856.136 315.947L832.06 299.781ZM826.369 253.597L797.495 250.896V250.896L826.369 253.597ZM843.546 154.844L815.282 148.354V148.354L843.546 154.844ZM873.195 84.8161L895.858 102.909L895.858 102.909L873.195 84.8161ZM896.161 71.341L905.573 43.9109L905.573 43.9108L896.161 71.341ZM902.732 75.3202L880.96 94.4764L880.96 94.4767L902.732 75.3202ZM906.552 84.3369L878.111 90.0032V90.0033L906.552 84.3369ZM899.544 146.436L871.416 139.381V139.381L899.544 146.436ZM833.378 297.557L857.746 313.279L857.747 313.279L833.378 297.557ZM832.365 299.34L855.958 316.203L857.313 314.307L858.348 312.22L832.365 299.34ZM706.168 183.967L734.096 191.779V191.779L706.168 183.967ZM640.999 304.31L612.006 304.937L613.864 390.805L664.438 321.386L640.999 304.31ZM721.628 99.2809L692.629 99.1246V99.1246L721.628 99.2809ZM712.694 70.0334L725.275 43.9044L725.275 43.9044L712.694 70.0334ZM687.663 82.9187L665.151 64.6373L665.151 64.6374L687.663 82.9187ZM654.653 165.566L626.217 159.879V159.879L654.653 165.566ZM641.003 294.815H670.003V294.815L641.003 294.815ZM640.976 295.813L612.019 294.229L611.932 295.813L612.019 297.398L640.976 295.813ZM640.998 297.221L612.006 296.566L612.006 296.568L640.998 297.221ZM266.615 99.8119L295.435 103.04L266.615 99.8119ZM202.473 240.135L173.616 237.258L164.863 325.053L223.996 259.572L202.473 240.135ZM252.926 66.3198L247.09 94.7264L252.926 66.3198ZM224.88 90.0732L252.071 100.155V100.155L224.88 90.0732ZM214.846 135.287L186.199 130.776V130.776L214.846 135.287ZM206.275 203.11L235.11 206.202V206.202L206.275 203.11ZM427.316 316.224L398.316 316.297V316.297L427.316 316.224ZM439.876 357.57L416.913 375.282L432.467 395.447L454.472 382.629L439.876 357.57ZM445.577 261.638L467.444 280.685L467.444 280.685L445.577 261.638ZM487.744 248.748L499.518 222.245L499.518 222.245L487.744 248.748ZM499.925 260.93L473.302 272.429L473.302 272.429L499.925 260.93ZM500.189 286.113L472.295 278.182V278.182L500.189 286.113ZM331.211 107.047C336.406 60.659 315.201 12.7576 266.009 2.65L254.335 59.4631C264.103 61.4701 276.709 72.5743 273.571 100.591L331.211 107.047ZM289.818 230.265C308.207 198.955 325.561 157.495 331.211 107.047L273.571 100.591C269.005 141.357 254.97 175.073 239.806 200.893L289.818 230.265ZM321.604 210.709C305.533 194.713 285.454 187.622 266.331 186.619L263.293 244.539C270.28 244.906 276.158 247.308 280.688 251.817L321.604 210.709ZM348.665 270.193C345.992 248.003 337.775 226.804 321.604 210.709L280.688 251.817C285.374 256.481 289.54 264.334 291.082 277.131L348.665 270.193ZM347.588 315.634C349.203 302.67 350.619 286.409 348.665 270.193L291.082 277.131C292.168 286.143 291.495 296.725 290.033 308.463L347.588 315.634ZM344.843 334.947C345.743 329.003 346.753 322.334 347.588 315.634L290.033 308.463C289.307 314.285 288.413 320.213 287.497 326.261L344.843 334.947ZM344.804 335.204L344.843 334.946L287.497 326.261L287.458 326.518L344.804 335.204ZM342.447 351.628C343.084 346.568 343.886 341.264 344.804 335.204L287.458 326.518C286.563 332.429 285.646 338.469 284.902 344.378L342.447 351.628ZM341.446 371.311C341.038 368.4 341.069 362.566 342.447 351.629L284.902 344.377C283.414 356.185 282.473 368.422 284.008 379.366L341.446 371.311ZM335.028 362.962C336.169 363.833 337.327 364.907 338.388 366.187C339.434 367.448 340.177 368.659 340.685 369.676C341.648 371.601 341.615 372.519 341.446 371.311L284.008 379.366C285.591 390.652 289.959 401.522 299.826 409.057L335.028 362.962ZM337.805 362.524C335.069 362.28 333.587 361.885 333.07 361.718C332.825 361.639 332.899 361.643 333.216 361.802C333.526 361.956 334.177 362.311 335.028 362.961L299.827 409.058C308.978 416.046 320.752 419.235 332.66 420.295L337.805 362.524ZM360.482 360.975C351.095 362.64 343.315 363.015 337.805 362.524L332.66 420.295C344.685 421.366 357.808 420.355 370.612 418.084L360.482 360.975ZM396.615 349.79C386.899 354.292 373.782 358.616 360.482 360.975L370.612 418.084C388.863 414.846 406.77 409.009 421 402.415L396.615 349.79ZM362.316 316.388C362.378 341.284 368.547 368.98 384.992 392.649L432.624 359.556C424.386 347.699 420.356 332.261 420.316 316.242L362.316 316.388ZM396.562 218.946C373.599 245.31 362.23 282.137 362.316 316.388L420.316 316.242C420.259 293.534 428.091 271.055 440.298 257.04L396.562 218.946ZM514.133 189.346C474.766 171.857 427.549 183.37 396.562 218.946L440.298 257.04C456.176 238.811 476.658 236.163 490.586 242.351L514.133 189.346ZM559.596 235.155C550.352 213.754 533.717 198.045 514.133 189.346L490.586 242.351C497.595 245.464 503.2 250.859 506.351 258.154L559.596 235.155ZM562.711 303.891C569.356 280.521 568.86 256.604 559.596 235.155L506.351 258.154C509.496 265.435 510.518 275.383 506.923 288.028L562.711 303.891ZM486.876 404.651C516.174 384.462 549.199 351.413 562.711 303.891L506.923 288.028C498.341 318.209 476.593 341.3 453.966 356.893L486.876 404.651ZM588.284 322.617C545.484 367.095 504.632 363.982 481.943 354.159L458.899 407.385C503.137 426.538 570.002 425.263 630.076 362.834L588.284 322.617ZM576.015 295.757C575.698 309.841 576.695 328.709 580.773 348.562L637.587 336.889C634.533 322.028 633.763 307.597 634 297.063L576.015 295.757ZM576.074 294.228C576.046 294.733 576.026 295.244 576.015 295.759L634 297.061C633.997 297.179 633.993 297.294 633.987 297.407L576.074 294.228ZM576.003 294.815C576.003 295.682 576.027 296.545 576.074 297.405L633.987 294.229C633.998 294.426 634.003 294.621 634.003 294.815H576.003ZM590.916 152.819C578.7 213.897 576.003 247.647 576.003 294.815L634.003 294.815C634.003 251.557 636.305 221.616 647.789 164.194L590.916 152.819ZM637.205 41.9433C615.576 68.5785 599.998 107.405 590.916 152.819L647.789 164.194C655.844 123.918 668.704 95.1614 682.23 78.506L637.205 41.9433ZM740.892 11.4684C696.644 -9.83641 657.853 16.5168 637.205 41.9433L682.229 78.506C688.728 70.5031 695.506 65.4623 701.238 63.231C706.179 61.308 710.583 61.2479 715.731 63.7264L740.892 11.4684ZM786.627 99.6314C786.77 73.0816 780.802 30.6841 740.892 11.4683L715.731 63.7264C719.821 65.6959 722.711 68.8062 724.939 74.3677C727.414 80.5453 728.684 89.0306 728.628 99.3186L786.627 99.6314ZM768.766 201.476C779.04 164.746 786.467 129.309 786.627 99.6312L728.628 99.3187C728.511 120.989 722.844 150.335 712.91 185.852L768.766 201.476ZM673.831 368.516C695.878 340.71 749.913 268.872 768.766 201.476L712.91 185.852C697.576 240.67 650.777 304.239 628.384 332.481L673.831 368.516ZM668.666 374.054C670.518 372.363 672.247 370.514 673.831 368.517L628.384 332.481C628.739 332.033 629.138 331.605 629.575 331.206L668.666 374.054ZM678.659 348.546C677.894 346.819 677.169 344.981 676.489 343.039L621.752 362.22C622.901 365.5 624.189 368.789 625.634 372.048L678.659 348.546ZM698.177 364.83C692.586 364.69 689.625 363.207 687.52 361.544C684.983 359.538 681.845 355.735 678.659 348.546L625.634 372.048C631.252 384.724 639.348 397.397 651.553 407.045C664.19 417.034 679.479 422.381 696.728 422.812L698.177 364.83ZM760.877 338.586C740.622 355.741 719.779 365.37 698.178 364.83L696.728 422.812C737.632 423.835 771.882 405.272 798.362 382.845L760.877 338.586ZM775.091 325.203C770.581 329.879 765.837 334.385 760.877 338.586L798.362 382.845C804.998 377.225 811.16 371.354 816.841 365.464L775.091 325.203ZM765.588 343.735C766.344 346.996 767.188 350.239 768.127 353.456L823.805 337.21C823.184 335.083 822.611 332.887 822.086 330.624L765.588 343.735ZM762.254 325.635C763.017 331.829 764.175 338.012 765.678 344.115L821.995 330.244C821.011 326.246 820.285 322.328 819.819 318.544L762.254 325.635ZM761.652 247.544C759.263 273.078 758.632 300.35 762.329 326.195L819.744 317.984C816.931 298.31 817.244 275.993 819.4 252.945L761.652 247.544ZM780.195 140.297C772.976 171.734 765.175 209.875 761.652 247.544L819.4 252.945C822.563 219.127 829.684 183.936 836.724 153.277L780.195 140.297ZM822.398 44.2621C803.015 68.5398 788.886 102.45 780.195 140.297L836.724 153.277C844.254 120.486 855.601 95.6342 867.724 80.4488L822.398 44.2621ZM917.257 9.85958C874.591 -4.78004 840.428 21.6772 822.398 44.2621L867.724 80.4488C873.513 73.1982 879.602 68.2201 885.009 65.7102C889.813 63.4801 893.916 63.1701 898.433 64.72L917.257 9.85958ZM951.532 32.3837C941.256 20.7042 928.886 13.8499 917.257 9.85959L898.433 64.72C902.722 66.1918 905.757 68.1607 907.988 70.6963L951.532 32.3837ZM970.299 71.6363C967.535 57.7602 961.797 44.0499 951.532 32.3838L907.988 70.6963C910.222 73.2353 912.228 76.9995 913.417 82.9692L970.299 71.6363ZM962.591 162.25C971.189 127.972 975.408 97.2803 970.299 71.6364L913.417 82.9692C915.893 95.3961 914.499 115.586 906.334 148.139L962.591 162.25ZM887.997 332.795C910.092 298.549 946.724 225.507 962.591 162.25L906.334 148.139C892.351 203.887 858.77 271.112 839.26 301.352L887.997 332.795ZM886.74 334.646C887.173 334.04 887.592 333.424 887.997 332.796L839.261 301.351C839.351 301.211 839.446 301.072 839.545 300.933L886.74 334.646ZM886.022 336.017C887.181 334.291 888.216 332.504 889.126 330.668L837.159 304.911C837.372 304.481 837.611 304.071 837.871 303.683L886.022 336.017ZM860.092 371.002C870.998 357.814 879.695 345.439 886.022 336.017L837.871 303.683C832.15 312.202 824.636 322.866 815.396 334.038L860.092 371.002ZM870.604 350.795C868.053 347.356 865.69 343.509 863.609 339.405L811.879 365.636C815.333 372.447 819.389 379.104 824.019 385.347L870.604 350.795ZM886.952 364.356C886.451 364.335 879.787 363.176 870.604 350.795L824.019 385.347C838.715 405.16 859.682 421.274 884.547 422.306L886.952 364.356ZM920.566 350.304C909.901 361.02 899.555 364.879 886.952 364.356L884.547 422.306C914.6 423.554 940.409 412.585 961.674 391.221L920.566 350.304ZM956.298 282.808C945.238 316.892 932.584 338.231 920.566 350.304L961.674 391.221C982.617 370.18 998.937 339.319 1011.47 300.711L956.298 282.808ZM958.169 277.967C957.46 279.537 956.835 281.153 956.298 282.808L1011.47 300.711C1011.35 301.081 1011.2 301.451 1011.04 301.819L958.169 277.967ZM1013.43 293.024C1013.37 293.647 1013.25 294.255 1013.08 294.838L957.311 278.903C956.57 281.498 956.059 284.126 955.773 286.761L1013.43 293.024ZM1013.08 294.837C1015.71 285.643 1022.15 271.444 1032.56 259.76L989.269 221.166C972.085 240.443 961.907 262.817 957.311 278.904L1013.08 294.837ZM1032.56 259.76C1042.88 248.188 1056.36 239.815 1073.5 239.815V181.815C1035.06 181.815 1006.96 201.318 989.269 221.166L1032.56 259.76ZM1073.5 239.815C1074.26 239.815 1075 239.821 1075.72 239.832L1076.59 181.838C1075.57 181.823 1074.54 181.815 1073.5 181.815V239.815ZM1077 181.815C1076.27 181.815 1075.54 181.832 1074.81 181.866L1077.5 239.804C1077.33 239.812 1077.17 239.815 1077 239.815V181.815ZM1096.63 183.263C1090.32 182.302 1083.77 181.815 1077 181.815V239.815C1080.99 239.815 1084.61 240.101 1087.91 240.603L1096.63 183.263ZM1088.57 240.696C1093.39 241.315 1097.4 242.222 1100.86 243.292L1118.01 187.886C1111.19 185.776 1103.9 184.19 1095.97 183.17L1088.57 240.696ZM1100.86 243.292C1107.28 245.28 1112.05 247.912 1116.95 250.863L1146.88 201.181C1140.48 197.328 1131.04 191.919 1118.01 187.886L1100.86 243.292ZM1116.95 250.864C1117.79 251.369 1118.57 251.844 1119.35 252.316L1149.45 202.734C1148.68 202.27 1147.82 201.745 1146.88 201.18L1116.95 250.864ZM1119.32 252.299L1119.34 252.311L1149.49 202.763L1149.47 202.751L1119.32 252.299ZM1119.61 252.473L1119.61 252.474L1149.23 202.602L1149.22 202.601L1119.61 252.473ZM1119.37 252.328C1123.28 254.703 1128.18 257.77 1134.35 260.164L1155.34 206.094C1155.12 206.01 1154.79 205.873 1154 205.437C1153.01 204.889 1151.81 204.167 1149.47 202.748L1119.37 252.328ZM1134.35 260.164C1141.61 262.982 1149.95 264.597 1160.79 264.312L1159.27 206.332C1157.19 206.386 1156.1 206.247 1155.71 206.182C1155.4 206.131 1155.36 206.103 1155.34 206.094L1134.35 260.164ZM1160.79 264.312C1178.89 263.835 1194.45 257.214 1205.8 250.293C1217.03 243.441 1226.15 235.071 1231.63 228.136L1186.13 192.173C1185.24 193.302 1181.44 197.213 1175.6 200.777C1169.87 204.272 1164.19 206.202 1159.27 206.332L1160.79 264.312ZM1231.63 228.136C1227.87 232.902 1220.95 233.712 1216.18 229.946L1252.15 184.441C1231.78 168.346 1202.22 171.808 1186.13 192.173L1231.63 228.136ZM1216.18 229.945C1211.42 226.179 1210.61 219.261 1214.37 214.495L1259.88 250.458C1275.97 230.093 1272.51 200.536 1252.15 184.441L1216.18 229.945ZM1214.37 214.495C1207.28 223.473 1186.08 241.639 1160.21 242.319L1161.74 300.299C1211.43 298.991 1247.05 266.684 1259.88 250.458L1214.37 214.495ZM1160.21 242.319C1159.38 242.341 1158.58 242.348 1157.82 242.342L1157.34 300.34C1158.79 300.352 1160.26 300.338 1161.74 300.299L1160.21 242.319ZM1190.86 318.453C1192.23 303.191 1191.33 283.266 1185.39 263.137L1129.76 279.544C1133.33 291.644 1133.91 304.127 1133.1 313.286L1190.86 318.453ZM1167.07 397.974C1184.44 369.771 1190.37 338.231 1190.97 316.673L1132.99 315.066C1132.6 329.085 1128.47 350.046 1117.68 367.56L1167.07 397.974ZM1065.59 457.769C1115.34 455.551 1148.29 428.464 1167.07 397.975L1117.68 367.559C1107.02 384.874 1090.1 398.619 1063.01 399.826L1065.59 457.769ZM999.938 441.186C1019.2 453.712 1041.77 458.831 1065.59 457.769L1063.01 399.826C1049.21 400.442 1039.06 397.441 1031.56 392.564L999.938 441.186ZM960.901 393.305C968.411 411.271 980.825 428.756 999.938 441.186L1031.56 392.564C1024.03 387.665 1018.34 380.334 1014.41 370.935L960.901 393.305ZM957.105 382.972C958.215 386.446 959.476 389.897 960.901 393.305L1014.41 370.936C1013.66 369.143 1012.98 367.27 1012.35 365.319L957.105 382.972ZM987.19 416.617C995.038 408.732 1002.16 399.988 1008.63 390.567L960.827 357.724C956.105 364.595 951.185 370.574 946.082 375.701L987.19 416.617ZM883.054 458.275C923.967 459.973 959.368 444.569 987.189 416.617L946.082 375.701C928.834 393.029 908.889 401.298 885.459 400.325L883.054 458.275ZM795.105 406.794C813.073 431.019 842.896 456.608 883.053 458.275L885.459 400.325C869.857 399.677 854.312 389.26 841.689 372.241L795.105 406.794ZM787.359 395.397C789.785 399.297 792.369 403.106 795.105 406.794L841.689 372.241C839.924 369.861 838.226 367.362 836.608 364.761L787.359 395.397ZM821.629 410.317C825.144 407.339 828.536 404.308 831.802 401.25L792.165 358.907C789.56 361.347 786.885 363.736 784.144 366.057L821.629 410.317ZM695.828 458.801C748.746 460.124 791.322 435.984 821.628 410.317L784.144 366.057C760.019 386.49 730.854 401.658 697.278 400.819L695.828 458.801ZM595.973 393.501C612.299 425.836 643.761 457.499 695.828 458.801L697.278 400.819C672.497 400.199 657.447 386.572 647.748 367.36L595.973 393.501ZM419.411 426.684C472.047 462.436 562.167 472.06 641.091 402.137L602.629 358.724C544.709 410.039 483.992 400.435 451.999 378.705L419.411 426.684ZM376.899 453.53C402.767 448.942 429.844 439.563 450.204 427.81L421.207 377.579C407.55 385.463 387.053 392.824 366.769 396.422L376.899 453.53ZM329.466 456.153C345.533 457.584 361.973 456.178 376.899 453.53L366.769 396.422C355.262 398.463 344.166 399.233 334.612 398.382L329.466 456.153ZM277.978 437.669C294.611 450.371 313.958 454.772 329.466 456.153L334.612 398.382C324.922 397.519 317.768 395.077 313.179 391.573L277.978 437.669ZM248.357 384.366C250.685 400.966 257.849 422.298 277.978 437.669L313.179 391.573C309.428 388.708 306.885 384.082 305.795 376.311L248.357 384.366ZM249.184 339.877C247.62 352.292 246.127 368.469 248.357 384.366L305.795 376.311C304.686 368.408 305.284 358.594 306.729 347.128L249.184 339.877ZM251.833 321.332C250.959 327.104 249.985 333.521 249.184 339.877L306.729 347.128C307.424 341.613 308.285 335.916 309.179 330.019L251.833 321.332ZM251.798 321.573L251.797 321.575L309.214 329.777L309.215 329.775L251.798 321.573ZM251.867 321.116L251.866 321.118L309.146 330.23L309.146 330.228L251.867 321.116ZM251.903 320.868L251.834 321.328L309.179 330.016L309.249 329.556L251.903 320.868ZM254.309 304.012C253.651 309.288 252.829 314.755 251.903 320.869L309.249 329.555C310.159 323.548 311.097 317.338 311.864 311.183L254.309 304.012ZM255.34 281.437C255.885 285.959 255.681 293 254.309 304.012L311.864 311.183C313.383 298.991 314.34 286.25 312.924 274.499L255.34 281.437ZM255.292 277.333C254.19 276.236 253.945 275.541 254.104 275.903C254.287 276.319 254.922 277.961 255.34 281.437L312.924 274.499C310.949 258.108 305.233 245.207 296.208 236.224L255.292 277.333ZM261.43 280.491C261.409 280.49 260.52 280.448 259.155 279.893C257.724 279.311 256.372 278.408 255.292 277.333L296.208 236.224C287.136 227.195 275.586 222.995 263.672 222.534L261.43 280.491ZM243.425 291.624C246.86 287.552 250.935 284.521 254.754 282.621C256.64 281.683 258.285 281.109 259.56 280.795C260.871 280.471 261.494 280.493 261.43 280.491L263.672 222.534C240.56 221.64 215.633 234.622 199.096 254.222L243.425 291.624ZM220.243 346.213C228.249 318.305 236.895 299.363 243.425 291.624L199.096 254.222C183.958 272.162 172.665 301.729 164.492 330.22L220.243 346.213ZM204.981 417.297C207.691 399.258 212.815 372.109 220.243 346.213L164.492 330.22C156.178 359.201 150.59 388.942 147.625 408.681L204.981 417.297ZM151.521 456.794C177.191 460.65 201.126 442.967 204.981 417.297L147.625 408.681C148.527 402.674 154.129 398.535 160.137 399.437L151.521 456.794ZM112.024 403.334C108.168 429.003 125.852 452.938 151.521 456.794L160.137 399.437C166.145 400.34 170.283 405.942 169.381 411.949L112.024 403.334ZM125.53 336.409C119.077 361.722 114.615 386.089 112.024 403.334L169.381 411.949C171.743 396.224 175.851 373.808 181.733 350.735L125.53 336.409ZM137.426 390.474C148.697 382.908 160.312 374.811 171.031 366.772L136.231 320.372C126.576 327.613 115.844 335.105 105.096 342.32L137.426 390.474ZM70.7661 432.365C86.9482 422.882 112.552 407.174 137.426 390.474L105.097 342.32C81.3627 358.254 56.7816 373.335 41.4413 382.325L70.7661 432.365ZM6.4528 415.579C19.5769 437.974 48.3709 445.49 70.7661 432.365L41.4413 382.325C46.6827 379.253 53.4218 381.012 56.4934 386.254L6.4528 415.579ZM23.2397 351.265C0.844507 364.389 -6.67127 393.183 6.45282 415.579L56.4933 386.254C59.5649 391.495 57.8059 398.234 52.5645 401.306L23.2397 351.265ZM85.0302 312.431C62.004 327.89 38.0576 342.582 23.2397 351.265L52.5645 401.306C68.2241 392.129 93.1931 376.81 117.359 360.586L85.0302 312.431ZM136.737 273.122C128.429 281.703 109.239 296.179 85.0302 312.431L117.359 360.586C141.241 344.553 165.292 327.01 178.405 313.467L136.737 273.122ZM146.284 265.53C142.834 267.606 139.619 270.145 136.737 273.122L178.406 313.467C177.755 314.139 177.006 314.735 176.181 315.232L146.284 265.53ZM136.382 247.868C135.011 261.704 133.696 274.976 132.392 287.341L190.073 293.421C191.399 280.842 192.732 267.383 194.099 253.588L136.382 247.868ZM136.439 247.339L136.439 247.339L194.042 254.116L194.042 254.116L136.439 247.339ZM141.646 196.179C139.778 213.599 138.041 231.131 136.382 247.867L194.099 253.587C195.762 236.813 197.476 219.513 199.315 202.363L141.646 196.179ZM150.637 125.177C147.237 146.775 144.296 171.466 141.646 196.179L199.315 202.363C201.934 177.939 204.755 154.37 207.932 134.198L150.637 125.177ZM163.935 67.4754C158.051 83.3438 153.897 104.474 150.637 125.177L207.932 134.198C211.14 113.823 214.602 97.6575 218.317 87.6396L163.935 67.4754ZM266.009 2.65C219.358 -6.93555 179.691 24.9803 163.935 67.4754L218.317 87.6396C227.328 63.3357 243.906 57.3201 254.335 59.4631L266.009 2.65ZM1090.81 218.804C1085.61 218.162 1079.89 217.815 1073.5 217.815V275.815C1077.79 275.815 1081.13 276.049 1083.7 276.367L1090.81 218.804ZM1073.5 217.815C1048.32 217.815 1029.29 230.368 1016.14 245.121L1059.44 283.715C1065.08 277.388 1069.47 275.815 1073.5 275.815V217.815ZM1016.14 245.121C1003.16 259.684 995.301 276.983 991.926 288.793L1047.69 304.727C1049.1 299.818 1053.22 290.691 1059.44 283.715L1016.14 245.121ZM991.926 288.795C991.981 288.602 992.041 288.411 992.107 288.222L1046.9 307.252C1047.18 306.421 1047.45 305.579 1047.69 304.726L991.926 288.795ZM1047.27 308.008C1048.01 304.836 1048.42 301.632 1048.49 298.445L990.51 297.029C990.529 296.27 990.625 295.526 990.791 294.813L1047.27 308.008ZM1047.63 357.051C1043.59 347.392 1042.3 329.276 1047.27 308.009L990.791 294.813C984.24 322.852 983.694 354.49 994.116 379.42L1047.63 357.051ZM1051.19 362.385C1050.82 362.145 1049.32 361.099 1047.63 357.051L994.116 379.42C999.409 392.083 1007.65 403.258 1019.57 411.007L1051.19 362.385ZM1061.41 363.862C1057.51 364.036 1055.01 363.665 1053.55 363.304C1052.14 362.956 1051.46 362.561 1051.19 362.385L1019.57 411.007C1031.52 418.779 1046.37 422.59 1063.99 421.804L1061.41 363.862ZM1087.03 348.681C1081.47 357.708 1074.54 363.276 1061.41 363.862L1063.99 421.804C1099.63 420.215 1122.65 401.448 1136.42 379.096L1087.03 348.681ZM1097.01 313.799C1096.81 323 1093.84 337.628 1087.03 348.681L1136.42 379.096C1149.87 357.257 1154.63 331.928 1155 315.053L1097.01 313.799ZM1097.03 313.133L1097.01 313.8L1155 315.052L1155.01 314.385L1097.03 313.133ZM1097.22 310.321L1097.15 310.985L1154.89 316.533L1154.95 315.868L1097.22 310.321ZM1092.59 283.148C1094.38 286.442 1095.85 290.963 1096.69 296.273C1097.52 301.539 1097.58 306.584 1097.22 310.322L1154.95 315.867C1156.51 299.644 1154.57 275.789 1143.58 255.511L1092.59 283.148ZM1082.68 276.222C1086.32 276.804 1088.07 277.855 1088.99 278.56C1090.03 279.355 1091.25 280.676 1092.59 283.148L1143.58 255.511C1134.42 238.605 1118.34 223.187 1091.83 218.949L1082.68 276.222ZM849.381 325.748C851.846 322.269 854.1 318.978 856.135 315.948L807.984 283.614C806.166 286.322 804.188 289.207 802.052 292.223L849.381 325.748ZM797.495 250.896C795.515 272.065 795.018 292.772 796.851 311.771L854.583 306.2C853.208 291.949 853.484 275.111 855.243 256.298L797.495 250.896ZM815.282 148.354C808.174 179.307 800.795 215.617 797.495 250.896L855.243 256.298C858.183 224.871 864.881 191.513 871.811 161.334L815.282 148.354ZM850.531 66.7228C835.655 85.3568 823.252 113.644 815.282 148.354L871.811 161.334C878.62 131.681 888.24 112.452 895.858 102.909L850.531 66.7228ZM905.573 43.9108C885.289 36.9508 865.699 47.7246 850.531 66.7228L895.858 102.909C899.942 97.7941 901.309 97.875 899.405 98.7089C898.333 99.1786 896.519 99.7477 894.09 99.859C891.66 99.9703 889.157 99.5975 886.749 98.7712L905.573 43.9108ZM924.505 56.164C919.237 50.177 912.673 46.347 905.573 43.9109L886.749 98.7712C886.725 98.7629 885.94 98.4924 884.763 97.7498C883.499 96.9518 882.171 95.8532 880.96 94.4764L924.505 56.164ZM934.993 78.6706C933.202 69.6804 929.773 62.1513 924.504 56.1638L880.96 94.4767C879.735 93.0848 878.921 91.7398 878.436 90.6943C877.993 89.7379 877.988 89.3835 878.111 90.0032L934.993 78.6706ZM927.673 153.492C935.998 120.3 938.469 96.1188 934.993 78.6705L878.111 90.0033C878.947 94.1993 879.326 107.845 871.416 139.381L927.673 153.492ZM857.747 313.279C878.237 281.519 912.975 212.087 927.673 153.492L871.416 139.381C858.602 190.467 826.915 254.082 809.01 281.835L857.747 313.279ZM858.348 312.22C858.165 312.589 857.964 312.943 857.746 313.279L809.01 281.835C808.042 283.335 807.165 284.88 806.382 286.461L858.348 312.22ZM856.136 315.947C856.078 316.033 856.018 316.119 855.958 316.203L808.771 282.478C808.504 282.852 808.241 283.231 807.983 283.615L856.136 315.947ZM678.24 176.155C668.197 212.059 640.804 255.328 617.56 287.233L664.438 321.386C688.08 288.935 721.035 238.472 734.096 191.779L678.24 176.155ZM692.629 99.1246C692.539 115.816 687.969 141.374 678.24 176.155L734.096 191.779C744.159 155.806 750.495 124.147 750.628 99.4372L692.629 99.1246ZM700.113 96.1624C697.669 94.9856 695.607 93.4132 694.037 91.6751C692.525 90.0027 691.883 88.6377 691.712 88.2245C691.559 87.8564 691.823 88.3567 692.107 90.1862C692.389 92.0059 692.651 94.8835 692.629 99.1246L750.628 99.4372C750.76 74.8857 744.658 53.2368 725.275 43.9044L700.113 96.1624ZM710.175 101.2C714.756 95.559 715.962 96.2071 713.246 97.1739C711.704 97.7227 709.474 98.1534 706.798 97.9554C704.169 97.7607 701.893 97.019 700.114 96.1624L725.275 43.9044C717.139 39.9868 706.05 38.1708 693.798 42.5316C682.746 46.4651 673.387 54.4955 665.151 64.6373L710.175 101.2ZM683.09 171.254C690.507 134.168 701.68 111.662 710.176 101.2L665.151 64.6374C648.552 85.0781 634.662 117.654 626.217 159.879L683.09 171.254ZM670.003 294.815C670.003 253.984 672.06 226.407 683.09 171.254L626.217 159.879C614.455 218.688 612.003 250.074 612.003 294.815L670.003 294.815ZM669.932 297.397C669.98 296.536 670.003 295.675 670.003 294.815H612.003C612.003 294.625 612.008 294.429 612.019 294.229L669.932 297.397ZM669.991 297.875C670.018 296.655 669.999 295.439 669.932 294.228L612.019 297.398C612.004 297.117 612 296.84 612.006 296.566L669.991 297.875ZM669.992 303.682C669.948 301.613 669.951 299.667 669.991 297.874L612.006 296.568C611.946 299.235 611.943 302.035 612.006 304.937L669.992 303.682ZM237.795 96.5841C230.948 157.718 198.956 200.76 180.95 220.699L223.996 259.572C246.207 234.976 286.704 180.993 295.435 103.04L237.795 96.5841ZM247.09 94.7264C242.232 93.7283 239.369 91.169 238.117 89.1212C236.899 87.1278 238.731 88.2287 237.795 96.5841L295.435 103.04C297.332 86.0972 295.023 71.0075 287.603 58.8702C280.151 46.6786 269.027 40.0221 258.763 37.9133L247.09 94.7264ZM252.071 100.155C254.407 93.8542 256.393 93.1848 255.335 93.871C254.907 94.1487 254.059 94.5793 252.756 94.843C251.584 95.0801 249.668 95.2562 247.09 94.7264L258.763 37.9133C235.092 33.0495 209.469 48.2206 197.689 79.9911L252.071 100.155ZM243.493 139.797C246.674 119.594 249.708 106.528 252.071 100.155L197.689 79.9911C193.15 92.2318 189.426 110.286 186.199 130.776L243.493 139.797ZM235.11 206.202C237.71 181.956 240.457 159.084 243.493 139.797L186.199 130.776C182.938 151.49 180.071 175.484 177.441 200.018L235.11 206.202ZM231.33 243.012C232.562 230.656 233.815 218.274 235.11 206.202L177.441 200.018C176.123 212.307 174.852 224.86 173.616 237.258L231.33 243.012ZM398.316 316.297C398.368 337.182 403.854 358.35 416.913 375.282L462.839 339.859C459.343 335.326 456.344 327.497 456.316 316.152L398.316 316.297ZM423.709 242.591C407.428 261.282 398.248 289.2 398.316 316.297L456.316 316.152C456.277 300.642 461.895 287.057 467.444 280.685L423.709 242.591ZM499.518 222.245C476.019 211.806 445.378 217.712 423.709 242.591L467.444 280.685C470.793 276.841 473.494 275.81 474.717 275.511C476.205 275.147 476.655 275.554 475.971 275.25L499.518 222.245ZM526.547 249.43C521.091 236.798 511.31 227.484 499.518 222.245L475.971 275.25C475.67 275.117 475.136 274.812 474.559 274.24C473.97 273.655 473.549 273.001 473.302 272.429L526.547 249.43ZM528.084 294.045C532.842 277.312 532.006 262.068 526.547 249.43L473.302 272.429C473.045 271.833 473.163 271.779 473.193 272.526C473.224 273.298 473.165 275.122 472.295 278.182L528.084 294.045ZM454.472 382.629C481.899 366.654 515.791 337.277 528.084 294.045L472.295 278.182C465.716 301.32 445.932 320.482 425.281 332.511L454.472 382.629Z" fill="white" mask="url(#path-1-outside-1_1_115)"/>
<circle cx="461.5" cy="284.5" r="48.5" fill="white"/>
<ellipse cx="1069.5" cy="330" rx="48.5" ry="68" fill="white"/>
<path fill-rule="evenodd" clip-rule="evenodd" d="M260.172 31.0565C289.652 37.1139 306.558 66.6167 302.391 103.819C297.283 149.426 281.588 187.014 264.812 215.579C277.867 216.264 290.845 221.01 301.146 231.263C311.575 241.643 317.766 256.168 319.874 273.662C321.393 286.276 320.349 299.698 318.81 312.049C318.03 318.309 317.078 324.608 316.17 330.604L316.131 330.861C315.224 336.846 314.365 342.518 313.674 348.003C312.241 359.375 311.755 368.411 312.727 375.339C313.659 381.982 315.618 384.627 317.427 386.009C320.567 388.407 326.253 390.61 335.233 391.41C344 392.19 354.451 391.497 365.547 389.529C381.322 386.731 396.834 381.65 408.808 376.102C396.466 358.339 391.367 336.773 391.316 316.315C391.244 287.836 400.845 258.182 418.43 237.993C441.862 211.09 475.712 204.01 502.36 215.848C515.656 221.755 526.776 232.307 532.973 246.654C539.178 261.019 539.937 277.952 534.817 295.959C523.77 334.811 496.384 362.881 470.421 380.772C503.884 395.26 557.743 396.179 609.18 342.725C605.614 325.368 604.73 308.719 605.007 296.41C605.012 296.212 605.02 296.014 605.03 295.817C605.012 295.486 605.003 295.151 605.003 294.815C605.003 249.602 607.503 217.756 619.353 158.506C627.921 115.661 642.14 81.87 659.717 60.2246C677.026 38.911 702.214 25.0319 728.312 37.5974C751.885 48.9474 757.76 74.9183 757.628 99.475C757.489 125.149 750.942 157.541 740.838 193.664C723.745 254.771 673.328 322.475 651.107 350.499C650.493 351.274 649.828 351.984 649.12 352.63C650.035 355.24 651.042 357.804 652.146 360.297C660.951 380.162 674.613 393.25 697.453 393.821C728.706 394.602 756.252 380.506 779.62 360.716C785.418 355.805 790.871 350.616 795.966 345.333C795.186 342.661 794.478 339.941 793.837 337.18C792.593 332.129 791.651 327.078 791.036 322.09C787.781 299.33 788.254 274.535 790.526 250.245C793.869 214.501 801.33 177.835 808.46 146.787C816.57 111.468 829.308 82.087 845.061 62.3554C860.374 43.175 882.789 28.6924 907.845 37.2898C915.804 40.0208 923.506 44.4324 929.76 51.54C936.009 58.6426 939.881 67.3799 941.858 77.3028C945.651 96.3382 942.844 121.779 934.463 155.195C919.538 214.697 884.431 284.83 863.629 317.074C863.472 317.317 863.309 317.556 863.143 317.789C862.794 318.493 862.396 319.181 861.947 319.85C855.923 328.821 847.817 340.34 837.744 352.52C840.511 357.978 843.721 363.23 847.312 368.071C859.251 384.168 873.067 392.804 885.75 393.331C907.078 394.216 925.155 386.803 941.12 370.763C957.601 354.205 972.088 328.105 983.882 291.76C984.09 291.117 984.331 290.494 984.603 289.893C984.712 288.887 984.908 287.876 985.195 286.87C988.807 274.23 997.117 255.943 1010.92 240.463C1024.92 224.753 1045.71 210.815 1073.5 210.815C1074.4 210.815 1075.28 210.822 1076.15 210.835C1076.43 210.822 1076.72 210.815 1077 210.815C1082.38 210.815 1087.46 211.201 1092.27 211.933C1098.65 212.753 1104.3 213.999 1109.44 215.589C1119.16 218.6 1126.27 222.62 1131.92 226.022C1132.8 226.557 1133.63 227.057 1134.4 227.525L1134.42 227.537L1134.42 227.538C1138.79 230.189 1141.48 231.823 1144.84 233.129C1148.24 234.448 1152.72 235.514 1160.03 235.322C1183.05 234.716 1202.51 218.219 1208.88 210.154C1215.04 202.355 1226.36 201.029 1234.16 207.193C1241.96 213.357 1243.29 224.677 1237.12 232.476C1227.17 245.079 1198.75 270.315 1160.98 271.309C1159.82 271.34 1158.69 271.35 1157.58 271.341C1162.33 287.455 1163.07 303.659 1161.98 315.869C1161.49 333.658 1156.46 359.908 1142.38 382.767C1127.66 406.669 1102.72 427.085 1064.3 428.798C1045.49 429.636 1029.13 425.577 1015.75 416.875C1002.43 408.211 993.377 395.803 987.657 382.12C986.57 379.52 985.596 376.858 984.729 374.145C979.132 382.292 973.111 389.653 966.636 396.159C944.101 418.799 916.428 430.635 884.256 429.3C856.377 428.143 833.692 410.139 818.397 389.518C816.147 386.483 814.006 383.329 811.984 380.079C809.048 382.827 806.015 385.537 802.886 388.187C775.67 411.237 739.8 430.891 696.553 429.81C658.129 428.849 634.873 406.204 621.86 380.431C553.438 441.049 478.02 431.435 435.705 402.695C418.697 412.513 394.91 420.883 371.834 424.976C358.617 427.32 344.849 428.409 332.039 427.268C319.44 426.146 306.189 422.724 295.578 414.621C283.638 405.503 278.785 392.524 277.076 380.339C275.407 368.438 276.452 355.443 277.957 343.502C278.705 337.567 279.622 331.51 280.506 325.676L280.506 325.674L280.506 325.672L280.576 325.212C281.494 319.151 282.374 313.313 283.086 307.598C284.532 295.995 285.112 286.104 284.132 277.968C282.729 266.326 279.062 260.075 275.75 256.778C272.538 253.582 268.242 251.733 262.551 251.512C250.255 251.037 233.371 258.569 221.26 272.923C210.427 285.763 200.457 310.017 192.368 338.216C184.496 365.655 179.141 394.1 176.303 412.989C174.826 422.82 165.66 429.592 155.829 428.116C145.998 426.639 139.226 417.472 140.703 407.642C143.179 391.157 147.464 367.765 153.631 343.572C143.444 351.212 132.27 359.006 121.261 366.397C96.9573 382.714 71.8649 398.109 56.1037 407.345C47.5268 412.371 36.4993 409.493 31.4731 400.916C26.4468 392.339 29.3252 381.312 37.9021 376.286C53.1409 367.355 77.5985 352.35 101.195 336.508C125.24 320.366 146.86 304.357 157.571 293.294C158.687 292.142 159.92 291.171 161.232 290.381C162.547 277.909 163.872 264.543 165.241 250.728L165.241 250.727C166.901 233.972 168.627 216.556 170.481 199.271C173.115 174.702 175.996 150.573 179.284 129.688C182.518 109.149 186.327 90.5006 191.126 77.5575C203.51 44.158 231.632 25.1923 260.172 31.0565ZM1087.26 247.585C1083.37 247.105 1078.84 246.815 1073.5 246.815C1058.9 246.815 1047.18 253.878 1037.79 264.418C1028.19 275.187 1022.2 288.401 1019.81 296.76C1019.72 297.091 1019.61 297.416 1019.5 297.737C1019.47 298.951 1019.32 300.181 1019.03 301.411C1013.27 326.064 1013.64 350.941 1020.87 368.236C1024.36 376.591 1029.23 382.701 1035.38 386.696C1041.46 390.654 1050.11 393.394 1062.7 392.833C1087.09 391.746 1102.06 379.578 1111.72 363.889C1121.85 347.442 1125.72 327.464 1126.01 314.426L1126.02 313.759L1126.08 313.094C1127.27 300.737 1125.55 283.098 1118.09 269.33C1112.44 258.917 1103.38 250.163 1087.26 247.585ZM832.06 299.781C830.133 302.65 828.017 305.738 825.717 308.986C824.113 292.36 824.499 273.588 826.369 253.597C829.489 220.244 836.528 185.41 843.546 154.844C850.936 122.663 861.948 98.9044 873.195 84.8161C884.882 70.1768 892.717 70.1594 896.161 71.341C899.555 72.5054 901.466 73.8817 902.732 75.3202C904.002 76.7638 905.555 79.3311 906.552 84.3369C908.708 95.1591 907.662 114.072 899.544 146.436C885.788 201.277 852.576 267.8 833.378 297.557C833.003 298.139 832.665 298.734 832.365 299.34C832.261 299.485 832.159 299.632 832.06 299.781ZM640.999 304.31C664.442 272.132 694.616 225.265 706.168 183.967C716.064 148.59 721.517 119.982 721.628 99.2809C721.746 77.4626 716.121 71.6835 712.694 70.0334C708.792 68.1543 700.48 67.1357 687.663 82.9187C675.116 98.37 662.584 125.911 654.653 165.566C643.257 222.547 641.003 252.029 641.003 294.815C641.003 295.15 640.994 295.483 640.976 295.813C641.001 296.278 641.009 296.747 640.998 297.221C640.948 299.451 640.945 301.824 640.999 304.31ZM202.473 240.135C222.582 217.868 258.826 169.356 266.615 99.8119C269.448 74.5141 258.332 67.4306 252.926 66.3198C246.581 65.0159 232.953 68.3002 224.88 90.0732C221.429 99.3801 218.05 114.94 214.846 135.287C211.697 155.287 208.891 178.72 206.275 203.11C204.969 215.29 203.707 227.758 202.473 240.135ZM439.876 357.57C431.598 346.838 427.356 332.34 427.316 316.224C427.262 294.921 434.661 274.169 445.577 261.638C459.587 245.552 476.831 243.9 487.744 248.748C493.228 251.184 497.506 255.33 499.925 260.93C502.336 266.513 503.413 274.777 500.189 286.113C490.754 319.299 463.916 343.568 439.876 357.57Z" fill="black"/>
</svg>
